<svg width="68" height="72" viewBox="0 0 68 72" fill="none" xmlns="http://www.w3.org/2000/svg">
<path fill-rule="evenodd" clip-rule="evenodd" d="M37.1602 0.246094C36.082 0.0820312 34.9453 0 33.75 0C31.3594 0 29.168 0.316406 27.1758 0.949219C25.1836 1.55859 23.1914 2.50781 21.1992 3.79688C19.5117 4.875 17.8242 5.75391 16.1367 6.43359C14.4492 7.11328 12.7383 7.64062 11.0039 8.01562C9.26953 8.39062 7.48828 8.64844 5.66016 8.78906C3.83203 8.92969 1.94531 9 0 9V27C0 30.4219 0.421875 33.668 1.26562 36.7383C2.13281 39.8086 3.31641 42.7266 4.81641 45.4922C6.33984 48.2344 8.13281 50.8242 10.1953 53.2617C10.4683 53.5844 10.7444 53.9046 11.0236 54.2223C11.3072 53.5788 11.6346 52.9611 12.0059 52.3691C12.7285 51.1973 13.5977 50.1426 14.6133 49.2051C15.6484 48.248 16.8008 47.4473 18.0703 46.8027C16.6445 45.748 15.5215 44.4199 14.7012 42.8184C13.9004 41.2168 13.5 39.5273 13.5 37.75C13.5 36.207 13.793 34.752 14.3789 33.3848C14.9844 32.0176 15.7949 30.8262 16.8105 29.8105C17.8262 28.7949 19.0176 27.9941 20.3848 27.4082C21.752 26.8027 23.207 26.5 24.75 26.5C26.5273 26.5 28.2168 26.9102 29.8184 27.7305C31.4199 28.5312 32.748 29.6445 33.8027 31.0703C34.5449 29.6055 35.4922 28.2969 36.6445 27.1445C37.7969 25.9922 39.1055 25.0449 40.5703 24.3027C39.1445 23.248 38.0215 21.9199 37.2012 20.3184C36.4004 18.7168 36 17.0273 36 15.25C36 13.707 36.293 12.252 36.8789 10.8848C37.4844 9.51758 38.2949 8.32617 39.3105 7.31055C40.3262 6.29492 41.5176 5.49414 42.8848 4.9082C44.0727 4.38213 45.3269 4.0846 46.6476 4.01562C46.532 3.94364 46.4164 3.87072 46.3008 3.79688C45.293 3.16406 44.2969 2.61328 43.3125 2.14453C42.3281 1.65234 41.3203 1.25391 40.2891 0.949219C39.2812 0.621094 38.2383 0.386719 37.1602 0.246094ZM55.673 7.82579C56.4626 8.72272 57.1022 9.74238 57.5918 10.8848C58.1973 12.252 58.5 13.707 58.5 15.25C58.5 17.0273 58.0898 18.7168 57.2695 20.3184C56.4688 21.9199 55.3555 23.248 53.9297 24.3027C55.1992 24.9473 56.3418 25.748 57.3574 26.7051C58.3926 27.6426 59.2715 28.6973 59.9941 29.8691C60.7168 31.0215 61.2734 32.2715 61.6641 33.6191C62.0547 34.9473 62.25 36.3242 62.25 37.75H58.5C58.5 36.207 58.1973 34.752 57.5918 33.3848C57.0059 32.0176 56.2051 30.8262 55.1895 29.8105C54.1738 28.7949 52.9824 27.9941 51.6152 27.4082C50.248 26.8027 48.793 26.5 47.25 26.5C45.707 26.5 44.252 26.8027 42.8848 27.4082C41.5176 27.9941 40.3262 28.7949 39.3105 29.8105C38.2949 30.8262 37.4844 32.0176 36.8789 33.3848C36.293 34.752 36 36.207 36 37.75C36 39.5273 35.5898 41.2168 34.7695 42.8184C33.9688 44.4199 32.8555 45.748 31.4297 46.8027C32.6992 47.4473 33.8418 48.248 34.8574 49.2051C35.8926 50.1426 36.7715 51.1973 37.4941 52.3691C38.2168 53.5215 38.7734 54.7715 39.1641 56.1191C39.5547 57.4473 39.75 58.8242 39.75 60.25H36C36 58.707 35.6973 57.252 35.0918 55.8848C34.5059 54.5176 33.7051 53.3262 32.6895 52.3105C31.6738 51.2949 30.4824 50.4941 29.1152 49.9082C27.748 49.3027 26.293 49 24.75 49C23.207 49 21.752 49.3027 20.3848 49.9082C19.0176 50.4941 17.8262 51.2949 16.8105 52.3105C15.7949 53.3262 14.9844 54.5176 14.3789 55.8848C14.1827 56.3427 14.0193 56.8104 13.8888 57.288C14.8633 58.2689 15.8704 59.2237 16.9102 60.1523C19.3242 62.2852 21.8672 64.2773 24.5391 66.1289C27.2344 67.9805 29.9414 69.6914 32.6602 71.2617L33.75 71.8945L34.8398 71.2617C37.5586 69.6914 40.2539 67.9805 42.9258 66.1289C45.6211 64.2773 48.1758 62.2852 50.5898 60.1523C53.0039 57.9961 55.2422 55.6992 57.3047 53.2617C59.3672 50.8242 61.1484 48.2344 62.6484 45.4922C64.1719 42.7266 65.3555 39.8086 66.1992 36.7383C67.0664 33.668 67.5 30.4219 67.5 27V9C65.5547 9 63.668 8.92969 61.8398 8.78906C60.0117 8.64844 58.2305 8.39062 56.4961 8.01562C56.2211 7.95618 55.9468 7.8929 55.673 7.82579ZM27.6504 44.6641C26.7324 45.0547 25.7656 45.25 24.75 45.25C23.7148 45.25 22.7383 45.0547 21.8203 44.6641C20.9219 44.2539 20.1309 43.7168 19.4473 43.0527C18.7832 42.3691 18.2461 41.5781 17.8359 40.6797C17.4453 39.7617 17.25 38.7852 17.25 37.75C17.25 36.7344 17.4453 35.7676 17.8359 34.8496C18.2461 33.9316 18.7832 33.1406 19.4473 32.4766C20.1309 31.793 20.9219 31.2559 21.8203 30.8652C22.7383 30.4551 23.7148 30.25 24.75 30.25C25.7656 30.25 26.7324 30.4551 27.6504 30.8652C28.5684 31.2559 29.3594 31.793 30.0234 32.4766C30.707 33.1406 31.2441 33.9316 31.6348 34.8496C32.0449 35.7676 32.25 36.7344 32.25 37.75C32.25 38.7852 32.0449 39.7617 31.6348 40.6797C31.2441 41.5781 30.707 42.3691 30.0234 43.0527C29.3594 43.7168 28.5684 44.2539 27.6504 44.6641ZM40.3359 18.1797C39.9453 17.2617 39.75 16.2852 39.75 15.25C39.75 14.2344 39.9453 13.2676 40.3359 12.3496C40.7461 11.4316 41.2832 10.6406 41.9473 9.97656C42.6309 9.29297 43.4219 8.75586 44.3203 8.36523C45.2383 7.95508 46.2148 7.75 47.25 7.75C48.2656 7.75 49.2324 7.95508 50.1504 8.36523C51.0684 8.75586 51.8594 9.29297 52.5234 9.97656C53.207 10.6406 53.7441 11.4316 54.1348 12.3496C54.5449 13.2676 54.75 14.2344 54.75 15.25C54.75 16.2852 54.5449 17.2617 54.1348 18.1797C53.7441 19.0781 53.207 19.8691 52.5234 20.5527C51.8594 21.2168 51.0684 21.7539 50.1504 22.1641C49.2324 22.5547 48.2656 22.75 47.25 22.75C46.2148 22.75 45.2383 22.5547 44.3203 22.1641C43.4219 21.7539 42.6309 21.2168 41.9473 20.5527C41.2832 19.8691 40.7461 19.0781 40.3359 18.1797Z" fill="#2F9BED"/>
</svg>
