<svg width="77" height="82" viewBox="0 0 77 82" fill="none" xmlns="http://www.w3.org/2000/svg">
<path d="M38.4375 0C39.7988 0 41.0934 0.0934245 42.3213 0.280273C43.5492 0.44043 44.737 0.707357 45.8848 1.08105C47.0592 1.42806 48.207 1.88184 49.3281 2.44238C50.4492 2.97624 51.5837 3.60352 52.7314 4.32422C54.6533 5.55208 56.5752 6.55306 58.4971 7.32715C60.4189 8.10124 62.3675 8.70182 64.3428 9.12891C66.318 9.55599 68.3467 9.84961 70.4287 10.0098C72.5107 10.1699 74.6595 10.25 76.875 10.25V30.75C76.875 34.6471 76.3812 38.3441 75.3936 41.8408C74.4326 45.3376 73.0846 48.6608 71.3496 51.8105C69.6413 54.9336 67.6126 57.8831 65.2637 60.6592C62.9147 63.4352 60.3656 66.0511 57.6162 68.5068C54.8669 70.9359 51.9574 73.2048 48.8877 75.3135C45.8447 77.4222 42.7751 79.3708 39.6787 81.1592L38.4375 81.8799L37.1963 81.1592C34.0999 79.3708 31.0169 77.4222 27.9473 75.3135C24.9043 73.2048 22.0081 70.9359 19.2588 68.5068C16.5094 66.0511 13.9603 63.4352 11.6113 60.6592C9.26237 57.8831 7.22038 54.9336 5.48535 51.8105C3.77702 48.6608 2.42904 45.3376 1.44141 41.8408C0.480469 38.3441 0 34.6471 0 30.75V10.25C2.21549 10.25 4.36426 10.1699 6.44629 10.0098C8.52832 9.84961 10.557 9.55599 12.5322 9.12891C14.5075 8.70182 16.4561 8.10124 18.3779 7.32715C20.2998 6.55306 22.2217 5.55208 24.1436 4.32422C26.4124 2.85612 28.6813 1.77507 30.9502 1.08105C33.2191 0.360352 35.7148 0 38.4375 0Z" fill="white"/>
<path fill-rule="evenodd" clip-rule="evenodd" d="M42.1602 5.24609C41.082 5.08203 39.9453 5 38.75 5C36.3594 5 34.168 5.31641 32.1758 5.94922C30.1836 6.55859 28.1914 7.50781 26.1992 8.79688C24.5117 9.875 22.8242 10.7539 21.1367 11.4336C19.4492 12.1133 17.7383 12.6406 16.0039 13.0156C14.2695 13.3906 12.4883 13.6484 10.6602 13.7891C8.83203 13.9297 6.94531 14 5 14V32C5 35.4219 5.42188 38.668 6.26562 41.7383C7.13281 44.8086 8.31641 47.7266 9.81641 50.4922C11.3398 53.2344 13.1328 55.8242 15.1953 58.2617C15.4683 58.5844 15.7444 58.9046 16.0236 59.2223C16.3072 58.5788 16.6346 57.9611 17.0059 57.3691C17.7285 56.1973 18.5977 55.1426 19.6133 54.2051C20.6484 53.248 21.8008 52.4473 23.0703 51.8027C21.6445 50.748 20.5215 49.4199 19.7012 47.8184C18.9004 46.2168 18.5 44.5273 18.5 42.75C18.5 41.207 18.793 39.752 19.3789 38.3848C19.9844 37.0176 20.7949 35.8262 21.8105 34.8105C22.8262 33.7949 24.0176 32.9941 25.3848 32.4082C26.752 31.8027 28.207 31.5 29.75 31.5C31.5273 31.5 33.2168 31.9102 34.8184 32.7305C36.4199 33.5312 37.748 34.6445 38.8027 36.0703C39.5449 34.6055 40.4922 33.2969 41.6445 32.1445C42.7969 30.9922 44.1055 30.0449 45.5703 29.3027C44.1445 28.248 43.0215 26.9199 42.2012 25.3184C41.4004 23.7168 41 22.0273 41 20.25C41 18.707 41.293 17.252 41.8789 15.8848C42.4844 14.5176 43.2949 13.3262 44.3105 12.3105C45.3262 11.2949 46.5176 10.4941 47.8848 9.9082C49.0727 9.38213 50.3269 9.0846 51.6476 9.01562C51.532 8.94364 51.4164 8.87072 51.3008 8.79688C50.293 8.16406 49.2969 7.61328 48.3125 7.14453C47.3281 6.65234 46.3203 6.25391 45.2891 5.94922C44.2812 5.62109 43.2383 5.38672 42.1602 5.24609ZM60.673 12.8258C61.4626 13.7227 62.1022 14.7424 62.5918 15.8848C63.1973 17.252 63.5 18.707 63.5 20.25C63.5 22.0273 63.0898 23.7168 62.2695 25.3184C61.4688 26.9199 60.3555 28.248 58.9297 29.3027C60.1992 29.9473 61.3418 30.748 62.3574 31.7051C63.3926 32.6426 64.2715 33.6973 64.9941 34.8691C65.7168 36.0215 66.2734 37.2715 66.6641 38.6191C67.0547 39.9473 67.25 41.3242 67.25 42.75H63.5C63.5 41.207 63.1973 39.752 62.5918 38.3848C62.0059 37.0176 61.2051 35.8262 60.1895 34.8105C59.1738 33.7949 57.9824 32.9941 56.6152 32.4082C55.248 31.8027 53.793 31.5 52.25 31.5C50.707 31.5 49.252 31.8027 47.8848 32.4082C46.5176 32.9941 45.3262 33.7949 44.3105 34.8105C43.2949 35.8262 42.4844 37.0176 41.8789 38.3848C41.293 39.752 41 41.207 41 42.75C41 44.5273 40.5898 46.2168 39.7695 47.8184C38.9688 49.4199 37.8555 50.748 36.4297 51.8027C37.6992 52.4473 38.8418 53.248 39.8574 54.2051C40.8926 55.1426 41.7715 56.1973 42.4941 57.3691C43.2168 58.5215 43.7734 59.7715 44.1641 61.1191C44.5547 62.4473 44.75 63.8242 44.75 65.25H41C41 63.707 40.6973 62.252 40.0918 60.8848C39.5059 59.5176 38.7051 58.3262 37.6895 57.3105C36.6738 56.2949 35.4824 55.4941 34.1152 54.9082C32.748 54.3027 31.293 54 29.75 54C28.207 54 26.752 54.3027 25.3848 54.9082C24.0176 55.4941 22.8262 56.2949 21.8105 57.3105C20.7949 58.3262 19.9844 59.5176 19.3789 60.8848C19.1827 61.3427 19.0193 61.8104 18.8888 62.288C19.8633 63.2689 20.8704 64.2237 21.9102 65.1523C24.3242 67.2852 26.8672 69.2773 29.5391 71.1289C32.2344 72.9805 34.9414 74.6914 37.6602 76.2617L38.75 76.8945L39.8398 76.2617C42.5586 74.6914 45.2539 72.9805 47.9258 71.1289C50.6211 69.2773 53.1758 67.2852 55.5898 65.1523C58.0039 62.9961 60.2422 60.6992 62.3047 58.2617C64.3672 55.8242 66.1484 53.2344 67.6484 50.4922C69.1719 47.7266 70.3555 44.8086 71.1992 41.7383C72.0664 38.668 72.5 35.4219 72.5 32V14C70.5547 14 68.668 13.9297 66.8398 13.7891C65.0117 13.6484 63.2305 13.3906 61.4961 13.0156C61.2211 12.9562 60.9468 12.8929 60.673 12.8258ZM32.6504 49.6641C31.7324 50.0547 30.7656 50.25 29.75 50.25C28.7148 50.25 27.7383 50.0547 26.8203 49.6641C25.9219 49.2539 25.1309 48.7168 24.4473 48.0527C23.7832 47.3691 23.2461 46.5781 22.8359 45.6797C22.4453 44.7617 22.25 43.7852 22.25 42.75C22.25 41.7344 22.4453 40.7676 22.8359 39.8496C23.2461 38.9316 23.7832 38.1406 24.4473 37.4766C25.1309 36.793 25.9219 36.2559 26.8203 35.8652C27.7383 35.4551 28.7148 35.25 29.75 35.25C30.7656 35.25 31.7324 35.4551 32.6504 35.8652C33.5684 36.2559 34.3594 36.793 35.0234 37.4766C35.707 38.1406 36.2441 38.9316 36.6348 39.8496C37.0449 40.7676 37.25 41.7344 37.25 42.75C37.25 43.7852 37.0449 44.7617 36.6348 45.6797C36.2441 46.5781 35.707 47.3691 35.0234 48.0527C34.3594 48.7168 33.5684 49.2539 32.6504 49.6641ZM45.3359 23.1797C44.9453 22.2617 44.75 21.2852 44.75 20.25C44.75 19.2344 44.9453 18.2676 45.3359 17.3496C45.7461 16.4316 46.2832 15.6406 46.9473 14.9766C47.6309 14.293 48.4219 13.7559 49.3203 13.3652C50.2383 12.9551 51.2148 12.75 52.25 12.75C53.2656 12.75 54.2324 12.9551 55.1504 13.3652C56.0684 13.7559 56.8594 14.293 57.5234 14.9766C58.207 15.6406 58.7441 16.4316 59.1348 17.3496C59.5449 18.2676 59.75 19.2344 59.75 20.25C59.75 21.2852 59.5449 22.2617 59.1348 23.1797C58.7441 24.0781 58.207 24.8691 57.5234 25.5527C56.8594 26.2168 56.0684 26.7539 55.1504 27.1641C54.2324 27.5547 53.2656 27.75 52.25 27.75C51.2148 27.75 50.2383 27.5547 49.3203 27.1641C48.4219 26.7539 47.6309 26.2168 46.9473 25.5527C46.2832 24.8691 45.7461 24.0781 45.3359 23.1797Z" fill="#2F9BED"/>
</svg>
